<svg id="Warstwa_1" data-name="Warstwa 1" xmlns="http://www.w3.org/2000/svg" viewBox="0 0 495.92 212.38"><defs><style>.cls-1,.cls-2{fill:#fff;}.cls-2,.cls-3{stroke:#fff;stroke-miterlimit:10;}.cls-2{stroke-width:0.5px;}.cls-3{fill:none;stroke-width:4px;}</style></defs><title>logo-doxychain-white</title><path class="cls-1" d="M300,2v98.31h-4.2V86a29,29,0,0,1-11.4,11.47A30.62,30.62,0,0,1,269,101.75,30.11,30.11,0,0,1,247,92.64a29.78,29.78,0,0,1-9.11-21.82A29.8,29.8,0,0,1,247,49,30.11,30.11,0,0,1,269,39.88a31,31,0,0,1,15.67,4.33,26.81,26.81,0,0,1,11.07,11.53V2ZM242,70.88A26.49,26.49,0,0,0,249.9,90a25.54,25.54,0,0,0,18.94,8.06A26.15,26.15,0,0,0,288,90,26.05,26.05,0,0,0,296,71,26.51,26.51,0,0,0,288,51.74a25.86,25.86,0,0,0-19.07-8.19A25.54,25.54,0,0,0,250,51.68,26.57,26.57,0,0,0,242,70.88Z"/><path class="cls-1" d="M321.47,92.38a30.45,30.45,0,0,1-9-21.83A29.36,29.36,0,0,1,321.6,49a31.25,31.25,0,0,1,44.11,0,29.57,29.57,0,0,1,9.11,21.63,30.53,30.53,0,0,1-8.91,21.82,28.84,28.84,0,0,1-21.63,9.31H343.1A29,29,0,0,1,321.47,92.38Zm49.15-21.5a26.57,26.57,0,0,0-7.93-19.2,25.53,25.53,0,0,0-18.94-8.13,25.88,25.88,0,0,0-19.07,8.19A26.55,26.55,0,0,0,316.62,71,26.09,26.09,0,0,0,324.68,90a26.17,26.17,0,0,0,19.14,8.06A25.52,25.52,0,0,0,362.76,90,26.49,26.49,0,0,0,370.62,70.88Z"/><path class="cls-1" d="M409.82,64.52l23.72,35.79h-4.85L407.46,68.19l-21.11,32.12h-4.19l23.2-35.39-15.6-23.6h4.85l13.11,19.93,13.11-19.93H425Z"/><path class="cls-1" d="M491.48,41.32h4.19V98.47a27.73,27.73,0,0,1-28.05,27.92q-14.16,0-22.41-10.88l.26-6.55a28.68,28.68,0,0,0,9.63,10,23.29,23.29,0,0,0,29.3-3.28,22.87,22.87,0,0,0,7.08-16.84v-10q-6.44,12.85-22.42,12.85a25.5,25.5,0,0,1-18.61-7.67,25,25,0,0,1-7.73-18.41V41.32h4.19V75.67a21.62,21.62,0,0,0,6.62,15.72,21.69,21.69,0,0,0,31.33,0,21.62,21.62,0,0,0,6.62-15.72Z"/><path class="cls-2" d="M266.77,210.38H265.7a26.43,26.43,0,0,1-19.64-8.45,27.52,27.52,0,0,1-8.22-19.82,26.72,26.72,0,0,1,8.34-19.64,27.9,27.9,0,0,1,20.47-8.27,27.31,27.31,0,0,1,20.71,9.16v6.07a27.53,27.53,0,0,0-9.34-8.69,24.54,24.54,0,0,0-29,39,23.69,23.69,0,0,0,29,4.1,27,27,0,0,0,9.34-8.81v6.19A26.69,26.69,0,0,1,266.77,210.38Z"/><path class="cls-2" d="M301.29,208.83h-3.81V119.68h3.81v45.94q6-11.66,20.59-11.66a23.46,23.46,0,0,1,23.69,23.69v31.18h-3.81V177.65a19.88,19.88,0,0,0-5.83-14.35,18.9,18.9,0,0,0-14.05-6,19.93,19.93,0,0,0-14.4,6.07,19.36,19.36,0,0,0-6.19,14.29Z"/><path class="cls-2" d="M412.11,155.27v53.56H408.3V195.5a25,25,0,0,1-10,10.71A28.16,28.16,0,0,1,364,201.87a27.74,27.74,0,0,1,0-39.64A27.4,27.4,0,0,1,384,154a28.66,28.66,0,0,1,14.58,4,21.93,21.93,0,0,1,9.7,10.72V155.27Zm-52.61,26.9a25,25,0,0,0,24.7,24.64,23.17,23.17,0,0,0,17.2-7.32,24.72,24.72,0,0,0-.06-34.82,23.2,23.2,0,0,0-17.2-7.38,23.49,23.49,0,0,0-17.32,7.44A24.07,24.07,0,0,0,359.5,182.17Z"/><path class="cls-2" d="M429.85,142.29q-3.47,0-3.46-3.21c0-2.14,1.15-3.22,3.46-3.22s3.45,1.08,3.45,3.22S432.15,142.29,429.85,142.29Zm1.9,13.1v53.44h-3.81V155.39Z"/><path class="cls-2" d="M451.39,208.83h-3.81V155.27h3.81V166.1Q457.47,154,472.1,154a22.62,22.62,0,0,1,16.79,6.9,23.06,23.06,0,0,1,6.78,16.79v31.18h-3.81V177.65a20.05,20.05,0,0,0-5.77-14.29,18.58,18.58,0,0,0-14-6.07,20.14,20.14,0,0,0-14.46,6.07,19.27,19.27,0,0,0-6.25,14.29Z"/><line class="cls-3" x1="16.88" y1="31.77" x2="16.88" y2="61.54"/><line class="cls-3" x1="135.96" y1="31.77" x2="135.96" y2="61.54"/><line class="cls-3" x1="16.88" y1="91.31" x2="16.88" y2="121.07"/><line class="cls-3" x1="76.42" y1="91.31" x2="76.42" y2="121.07"/><line class="cls-3" x1="135.96" y1="91.31" x2="135.96" y2="121.07"/><line class="cls-3" x1="76.42" y1="150.84" x2="76.42" y2="180.61"/><line class="cls-3" x1="195.5" y1="150.84" x2="195.5" y2="180.61"/><line class="cls-3" x1="195.5" y1="91.31" x2="195.5" y2="121.07"/><line class="cls-3" x1="31.77" y1="76.42" x2="61.54" y2="76.42"/><line class="cls-3" x1="91.31" y1="76.42" x2="121.07" y2="76.42"/><line class="cls-3" x1="150.84" y1="76.42" x2="180.61" y2="76.42"/><line class="cls-3" x1="31.77" y1="135.96" x2="61.54" y2="135.96"/><line class="cls-3" x1="91.31" y1="135.96" x2="121.07" y2="135.96"/><line class="cls-3" x1="150.84" y1="135.96" x2="180.61" y2="135.96"/><rect class="cls-3" x="2" y="2" width="29.77" height="29.77" rx="7.63"/><rect class="cls-3" x="121.07" y="2" width="29.77" height="29.77" rx="7.63"/><rect class="cls-3" x="2" y="61.54" width="29.77" height="29.77" rx="7.63"/><rect class="cls-3" x="61.54" y="61.54" width="29.77" height="29.77" rx="7.63"/><rect class="cls-3" x="121.07" y="61.54" width="29.77" height="29.77" rx="7.63"/><rect class="cls-3" x="2" y="121.07" width="29.77" height="29.77" rx="7.63"/><rect class="cls-3" x="61.54" y="121.07" width="29.77" height="29.77" rx="7.63"/><rect class="cls-3" x="121.07" y="121.07" width="29.77" height="29.77" rx="7.63"/><rect class="cls-3" x="180.61" y="61.54" width="29.77" height="29.77" rx="7.63"/><rect class="cls-3" x="180.61" y="121.07" width="29.77" height="29.77" rx="7.63"/><rect class="cls-3" x="61.54" y="180.61" width="29.77" height="29.77" rx="7.63"/><rect class="cls-3" x="180.61" y="180.61" width="29.77" height="29.77" rx="7.63"/></svg>