<svg id="Warstwa_1" data-name="Warstwa 1" xmlns="http://www.w3.org/2000/svg" viewBox="0 0 185.47 185.47"><defs><style>.cls-1{fill:none;stroke:#262261;stroke-miterlimit:10;stroke-width:4px;}</style></defs><title>logo</title><line class="cls-1" x1="14.96" y1="27.92" x2="14.96" y2="53.85"/><line class="cls-1" x1="118.66" y1="27.92" x2="118.66" y2="53.85"/><line class="cls-1" x1="14.96" y1="79.77" x2="14.96" y2="105.7"/><line class="cls-1" x1="66.81" y1="79.77" x2="66.81" y2="105.7"/><line class="cls-1" x1="118.66" y1="79.77" x2="118.66" y2="105.7"/><line class="cls-1" x1="66.81" y1="131.62" x2="66.81" y2="157.55"/><line class="cls-1" x1="170.51" y1="131.62" x2="170.51" y2="157.55"/><line class="cls-1" x1="170.51" y1="79.77" x2="170.51" y2="105.7"/><line class="cls-1" x1="27.92" y1="66.81" x2="53.85" y2="66.81"/><line class="cls-1" x1="79.77" y1="66.81" x2="105.7" y2="66.81"/><line class="cls-1" x1="131.62" y1="66.81" x2="157.55" y2="66.81"/><line class="cls-1" x1="27.92" y1="118.66" x2="53.85" y2="118.66"/><line class="cls-1" x1="79.77" y1="118.66" x2="105.7" y2="118.66"/><line class="cls-1" x1="131.62" y1="118.66" x2="157.55" y2="118.66"/><rect class="cls-1" x="2" y="2" width="25.92" height="25.92" rx="7.63"/><rect class="cls-1" x="105.7" y="2" width="25.92" height="25.92" rx="7.63"/><rect class="cls-1" x="2" y="53.85" width="25.92" height="25.92" rx="7.63"/><rect class="cls-1" x="53.85" y="53.85" width="25.92" height="25.92" rx="7.63"/><rect class="cls-1" x="105.7" y="53.85" width="25.92" height="25.92" rx="7.63"/><rect class="cls-1" x="2" y="105.7" width="25.92" height="25.92" rx="7.63"/><rect class="cls-1" x="53.85" y="105.7" width="25.92" height="25.92" rx="7.63"/><rect class="cls-1" x="105.7" y="105.7" width="25.92" height="25.92" rx="7.63"/><rect class="cls-1" x="157.55" y="53.85" width="25.92" height="25.92" rx="7.63"/><rect class="cls-1" x="157.55" y="105.7" width="25.92" height="25.92" rx="7.63"/><rect class="cls-1" x="53.85" y="157.55" width="25.92" height="25.92" rx="7.63"/><rect class="cls-1" x="157.55" y="157.55" width="25.92" height="25.92" rx="7.63"/></svg>